<?xml version="1.0" encoding="UTF-8"?>
<!DOCTYPE svg PUBLIC "-//W3C//DTD SVG 1.1//EN" "http://www.w3.org/Graphics/SVG/1.1/DTD/svg11.dtd">
<svg xmlns="http://www.w3.org/2000/svg" version="1.1" width="512px" height="512px" style="shape-rendering:geometricPrecision; text-rendering:geometricPrecision; image-rendering:optimizeQuality; fill-rule:evenodd; clip-rule:evenodd" xmlns:xlink="http://www.w3.org/1999/xlink">
<g><path style="opacity:0.952" fill="#00BFFF" d="M 275.5,47.5 C 295.897,47.0117 309.23,56.345 315.5,75.5C 315.291,76.9945 314.624,78.1612 313.5,79C 302.537,80.1526 291.537,80.8193 280.5,81C 279.234,81.3095 278.067,81.8095 277,82.5C 276.333,84.8333 276.333,87.1667 277,89.5C 282.598,98.0939 287.764,106.927 292.5,116C 291.726,118.44 290.06,119.773 287.5,120C 262.693,123.362 247.86,112.862 243,88.5C 242.915,66.0935 253.748,52.4268 275.5,47.5 Z"/></g>
<g><path style="opacity:0.763" fill="#00BFFF" d="M 294.5,94.5 C 309.264,90.255 311.764,93.5884 302,104.5C 299.723,100.92 297.223,97.5863 294.5,94.5 Z"/></g>
<g><path style="opacity:0.969" fill="#00BFFF" d="M 511.5,398.5 C 511.5,405.5 511.5,412.5 511.5,419.5C 504.063,446.912 486.063,461.579 457.5,463.5C 429.019,461.688 411.185,447.021 404,419.5C 398.319,425.348 392.485,431.015 386.5,436.5C 380.27,422.876 377.77,408.543 379,393.5C 369.699,404.568 357.866,411.068 343.5,413C 300.835,413.5 258.168,413.667 215.5,413.5C 208.814,443.522 190.147,459.522 159.5,461.5C 128.734,459.633 110.401,443.633 104.5,413.5C 98.1667,413.5 91.8333,413.5 85.5,413.5C 86.6866,406.194 87.6866,398.861 88.5,391.5C 80.3888,391.935 72.3888,391.435 64.5,390C 61.3571,384.994 62.0238,380.661 66.5,377C 86.5,376.667 106.5,376.333 126.5,376C 131.796,372.234 131.796,368.567 126.5,365C 102.167,364.667 77.8333,364.333 53.5,364C 49.5035,363.164 47.5035,360.664 47.5,356.5C 47.9404,353.786 49.2738,351.62 51.5,350C 79.1667,349.667 106.833,349.333 134.5,349C 139.485,347.35 140.985,344.183 139,339.5C 137.829,338.107 136.329,337.273 134.5,337C 111.833,336.667 89.1667,336.333 66.5,336C 63.6061,333.091 62.7728,329.591 64,325.5C 65.214,323.951 66.714,322.785 68.5,322C 86.5,321.667 104.5,321.333 122.5,321C 133.733,311.358 146.733,305.358 161.5,303C 203.832,302.5 246.165,302.333 288.5,302.5C 288.5,330.833 288.5,359.167 288.5,387.5C 296.272,385.818 302.605,387.985 307.5,394C 310.363,395.399 313.363,396.399 316.5,397C 326.833,397.667 337.167,397.667 347.5,397C 363.741,392.387 370.908,381.554 369,364.5C 378.507,350.491 385.007,335.158 388.5,318.5C 381.292,281.794 373.959,245.128 366.5,208.5C 348.497,208.667 330.497,208.5 312.5,208C 300.029,196.53 287.862,184.696 276,172.5C 271.467,189.931 266.633,207.264 261.5,224.5C 245.629,220.526 229.629,217.193 213.5,214.5C 220.354,187.101 227.521,159.767 235,132.5C 242.36,120.93 252.193,118.43 264.5,125C 283.833,144.333 303.167,163.667 322.5,183C 335.829,183.5 349.163,183.667 362.5,183.5C 362.5,182.5 362.5,181.5 362.5,180.5C 378.542,178.049 394.542,175.382 410.5,172.5C 411.499,188.152 411.833,203.819 411.5,219.5C 406.167,218.833 400.833,218.167 395.5,217.5C 400.881,247.905 406.714,278.238 413,308.5C 413.667,314.833 413.667,321.167 413,327.5C 411.63,333.582 410.297,339.582 409,345.5C 433.106,328.496 458.606,325.996 485.5,338C 479.833,343.667 474.167,349.333 468.5,355C 491.797,360.796 506.13,375.296 511.5,398.5 Z M 453.5,375.5 C 472.811,375.656 484.978,384.99 490,403.5C 491.191,418.618 485.358,430.118 472.5,438C 448.168,446.085 432.335,437.918 425,413.5C 423.723,399.891 428.556,389.058 439.5,381C 444.017,378.445 448.684,376.612 453.5,375.5 Z M 128.5,413.5 C 149.511,413.167 170.511,413.5 191.5,414.5C 183.905,432.966 170.238,440.466 150.5,437C 139.149,432.819 131.816,424.986 128.5,413.5 Z"/></g>
<g><path style="opacity:0.972" fill="#00BFFF" d="M 72.5,151.5 C 84.8333,151.5 97.1667,151.5 109.5,151.5C 109.333,166.504 109.5,181.504 110,196.5C 110.833,198 112,199.167 113.5,200C 124.5,200.667 135.5,200.667 146.5,200C 148.667,199.167 150.167,197.667 151,195.5C 151.5,180.837 151.667,166.17 151.5,151.5C 163.833,151.5 176.167,151.5 188.5,151.5C 188.5,190.167 188.5,228.833 188.5,267.5C 149.833,267.5 111.167,267.5 72.5,267.5C 72.5,259.833 72.5,252.167 72.5,244.5C 60.4954,244.667 48.4954,244.5 36.5,244C 32.7885,241.487 31.6218,237.987 33,233.5C 33.3742,232.584 33.8742,231.75 34.5,231C 57.7454,229.687 81.0788,229.02 104.5,229C 109.285,225.74 109.619,222.073 105.5,218C 78.5,217.667 51.5,217.333 24.5,217C 19.4012,215.305 17.5679,211.805 19,206.5C 19.8333,205 21,203.833 22.5,203C 44.8968,202.968 67.2301,202.302 89.5,201C 93.6871,196.54 93.0204,192.873 87.5,190C 67.8333,189.667 48.1667,189.333 28.5,189C 22.9247,183.885 23.2581,179.219 29.5,175C 43.8295,174.5 58.1628,174.333 72.5,174.5C 72.5,166.833 72.5,159.167 72.5,151.5 Z"/></g>
<g><path style="opacity:0.884" fill="#00BFFF" d="M 122.5,151.5 C 127.833,151.5 133.167,151.5 138.5,151.5C 138.5,163.5 138.5,175.5 138.5,187.5C 133.167,187.5 127.833,187.5 122.5,187.5C 122.5,175.5 122.5,163.5 122.5,151.5 Z"/></g>
<g><path style="opacity:0.893" fill="#00BFFF" d="M 424.5,172.5 C 436.621,175.517 443.287,183.351 444.5,196C 443.565,208.601 437.065,216.768 425,220.5C 424.5,204.503 424.333,188.503 424.5,172.5 Z"/></g>
<g><path style="opacity:0.884" fill="#00BFFF" d="M -0.5,213.5 C -0.5,210.833 -0.5,208.167 -0.5,205.5C 3.28353,202.576 7.61686,201.743 12.5,203C 15.6467,206.309 16.3133,210.142 14.5,214.5C 9.18712,218.669 4.18712,218.336 -0.5,213.5 Z"/></g>
<g><path style="opacity:0.962" fill="#00BFFF" d="M 209.5,226.5 C 245.922,233.885 282.256,241.718 318.5,250C 327.043,254.218 332.21,261.052 334,270.5C 334.012,295.83 333.845,321.163 333.5,346.5C 325.167,346.5 316.833,346.5 308.5,346.5C 309.243,324.491 309.243,302.491 308.5,280.5C 301.876,278.952 295.209,277.618 288.5,276.5C 288.5,280.5 288.5,284.5 288.5,288.5C 250.165,288.333 211.832,288.5 173.5,289C 165.768,289.517 158.101,290.184 150.5,291C 152.82,279.346 159.82,272.346 171.5,270C 195.833,269.667 220.167,269.333 244.5,269C 235.478,267.441 226.478,265.774 217.5,264C 209.759,260.525 205.759,254.525 205.5,246C 206.733,239.47 208.067,232.97 209.5,226.5 Z"/></g>
<g><path style="opacity:0.868" fill="#00BFFF" d="M 31.5,349.5 C 34.8499,349.335 38.1832,349.502 41.5,350C 46.1786,354.023 46.512,358.357 42.5,363C 32.3395,366.493 27.8395,362.993 29,352.5C 30.045,351.627 30.8783,350.627 31.5,349.5 Z"/></g>
<g><path style="opacity:0.921" fill="#00BFFF" d="M 308.5,359.5 C 321.894,359.075 335.227,359.575 348.5,361C 355.33,365.161 357.164,370.995 354,378.5C 351.9,381.467 349.066,383.3 345.5,384C 335.107,384.899 324.773,384.566 314.5,383C 312.083,381.337 310.25,379.171 309,376.5C 308.501,370.843 308.334,365.176 308.5,359.5 Z"/></g>
<g><path style="opacity:0.866" fill="#00BFFF" d="M 47.5,376.5 C 56.2111,375.38 60.0444,379.047 59,387.5C 54.2843,392.395 49.2843,392.728 44,388.5C 41.4576,383.361 42.6243,379.361 47.5,376.5 Z"/></g>
</svg>
