<?xml version="1.0" encoding="UTF-8"?>
<svg id="Layer_2" data-name="Layer 2" xmlns="http://www.w3.org/2000/svg" xmlns:xlink="http://www.w3.org/1999/xlink" viewBox="0 0 408.7 255.49">
  <defs>
    <style>
      .cls-1 {
        clip-path: url(#clippath-2);
      }

      .cls-1, .cls-2, .cls-3, .cls-4, .cls-5, .cls-6 {
        fill: none;
      }

      .cls-7 {
        fill: #fff;
      }

      .cls-8 {
        fill: url(#linear-gradient-6);
      }

      .cls-9 {
        fill: #89d3e2;
      }

      .cls-9, .cls-10, .cls-11, .cls-12, .cls-13, .cls-14, .cls-15, .cls-16, .cls-17, .cls-18 {
        fill-rule: evenodd;
      }

      .cls-9, .cls-16 {
        opacity: .3;
      }

      .cls-10 {
        fill: url(#linear-gradient-2);
      }

      .cls-11 {
        fill: url(#linear-gradient);
      }

      .cls-12 {
        fill: url(#linear-gradient-9);
      }

      .cls-13 {
        opacity: .5;
      }

      .cls-13, .cls-16 {
        fill: #28286a;
      }

      .cls-14 {
        fill: url(#linear-gradient-5);
      }

      .cls-15 {
        fill: url(#linear-gradient-10);
      }

      .cls-19 {
        fill: #4a92cf;
      }

      .cls-2 {
        clip-path: url(#clippath-3);
      }

      .cls-3 {
        clip-rule: evenodd;
      }

      .cls-17 {
        fill: #594da0;
        opacity: .2;
      }

      .cls-20 {
        fill: url(#linear-gradient-7);
      }

      .cls-5 {
        clip-path: url(#clippath);
      }

      .cls-6 {
        clip-path: url(#clippath-1);
      }

      .cls-21 {
        fill: #4266b0;
      }

      .cls-22 {
        fill: url(#linear-gradient-4);
      }

      .cls-18 {
        fill: url(#linear-gradient-3);
      }

      .cls-23 {
        fill: url(#linear-gradient-8);
      }
    </style>
    <linearGradient id="linear-gradient" x1="246.23" y1="251.69" x2="250.89" y2="26.21" gradientUnits="userSpaceOnUse">
      <stop offset="0" stop-color="#31c4e8"/>
      <stop offset="1" stop-color="#aedbf5"/>
    </linearGradient>
    <linearGradient id="linear-gradient-2" x1="194.31" y1="76.49" x2="53.6" y2="135.04" xlink:href="#linear-gradient"/>
    <linearGradient id="linear-gradient-3" x1="54.59" y1="219.76" x2="193.55" y2="81.24" gradientUnits="userSpaceOnUse">
      <stop offset=".47" stop-color="#31c4e8"/>
      <stop offset="1" stop-color="#aedbf5"/>
    </linearGradient>
    <clipPath id="clippath">
      <path class="cls-3" d="m171.4,129.69c-3.7,3.28-8.56,6.24-15.11,8.69-.19,1.72-.87,5.73-1.83,7.19,4.07,5.01,8.8,13.15,11.49,20.16.4,1.04.75,2.05,1.05,3.02h20.73c-.31-1.13-.56-2.12-.83-3.02-.83-2.77-1.76-4.68-4.61-7.38l-3.53.99c-2.89.97-3.74-.93-4.32-2.9-1.05-3.58-2.43-7.05-2.39-10.84,6.13-4.27,10.13-8.58,13.56-15.61-7.41-.63-14.2-.3-14.2-.3"/>
    </clipPath>
    <linearGradient id="linear-gradient-4" x1="165.56" y1="128.44" x2="195.08" y2="238.59" xlink:href="#linear-gradient"/>
    <linearGradient id="linear-gradient-5" x1="128.7" y1="175.54" x2="312.67" y2="23.04" xlink:href="#linear-gradient"/>
    <clipPath id="clippath-1">
      <path class="cls-3" d="m216.6,138.76c-.04-.08-.08-.16-.11-.24.67-1.35.99-1.88,1.43-2.88l-1.32,3.13Z"/>
    </clipPath>
    <linearGradient id="linear-gradient-6" x1="217.21" y1="138.76" x2="217.21" y2="134.64" gradientUnits="userSpaceOnUse">
      <stop offset="0" stop-color="#6cc9cb"/>
      <stop offset="1" stop-color="#e6d2e6"/>
    </linearGradient>
    <clipPath id="clippath-2">
      <path class="cls-3" d="m217.92,135.63l.45-1.07c-.17.42-.32.77-.45,1.07"/>
    </clipPath>
    <linearGradient id="linear-gradient-7" x1="218.15" y1="135.64" x2="218.15" y2="134.22" xlink:href="#linear-gradient-6"/>
    <clipPath id="clippath-3">
      <path class="cls-3" d="m218.38,134.56s0,0,0,0h0Z"/>
    </clipPath>
    <linearGradient id="linear-gradient-8" x1="218.38" y1="134.57" x2="218.38" y2="134.55" xlink:href="#linear-gradient-6"/>
    <linearGradient id="linear-gradient-9" x1="236.4" y1="192.07" x2="243.97" y2="40.59" xlink:href="#linear-gradient"/>
    <linearGradient id="linear-gradient-10" x1="263.11" y1="112.04" x2="265.73" y2="221.71" xlink:href="#linear-gradient"/>
  </defs>
  <g id="Layer_1-2" data-name="Layer 1">
    <path class="cls-19" d="m0,175.47S90.91,48.8,90.91,48.8c0,0,1-1.39,1-1.39,0,0,1.38,1.06,1.38,1.06l29.3,22.45s-2.54.16-2.54.16L187.4,2.63S189.99,0,189.99,0c2.96,6.41,5.94,12.91,9.52,18.97,11.38,19.78,28.27,37.46,49.83,45.66,11.09,3.92,22.98,5.21,34.13,9.24,39.73,13.72,73.96,40.03,102.65,70.2,8.06,8.75,15.68,17.89,22.57,27.54l-.5.39c-15.19-18.15-32.23-34.59-50.77-49.04-22.85-18.21-48.2-33.64-76.01-42.87-11.3-3.94-22.93-5.13-34.35-9.38-23-8.92-40.47-27.96-52.24-49.07-2.98-5.24-5.51-10.7-7.95-16.18,0,0,4.17.78,4.17.78,0,0-68.26,67.53-68.26,67.53l-1.22,1.2-1.32-1.04s-29-22.83-29-22.83l2.38-.33c-.09-.27-93.24,126.7-93.62,124.7h0Z"/>
    <ellipse class="cls-4" cx="244.57" cy="36.06" rx="3.02" ry="1.69"/>
    <g>
      <g>
        <path class="cls-11" d="m231.24,60.09c-2.38-.04-5.02.36-7.45.92-1.93-2.06-2.39-5.66-2.38-7.1-2.09-2.36-2.26-6.33-1.9-9.04-2.07-2.93-2.36-7.16,1.66-8.08,3.6-.82,8.31-1.73,11.42-2.87,1.25-.45,3.36-1.33,4.24-2.39l.66-.79.93-.41c4.27-1.88,14.32-.38,19.54.59,4.95-1.78,10.62-1.49,13.91-.68.47,2.93.03,7.95-1.94,11.51,13.56,14.46,15.16,34.21,9.21,53.18-5.61,15.37-21.47,28.71-31.49,34.79,24.1-26.5,23.72-74.71-16.42-69.62h0Z"/>
        <path class="cls-17" d="m247.66,129.72h0c24.1-26.5,23.72-74.71-16.42-69.62-2.38-.04-5.02.36-7.45.92-1.93-2.06-2.39-5.66-2.38-7.1-2.09-2.36-2.26-6.33-1.9-9.04,25.35-1.73,53.53,7.56,54.23,36.73.7,29.08-25.91,47.99-26.09,48.11h0Z"/>
        <path class="cls-10" d="m137.95,113.99c-5.57,3.9-15.75,12.4-25.12,18.38-10.96,6.99-26.87,8.86-39.78-.25,2.3.31,3.96.23,5.84.02-5.41-4.53-10.06-14.32-6.08-23.06,0,0,.73,2.71,1.41,4.51,1.18-7.68,6.2-12.31,13.11-15.17,2.63,4.21,1.82,10.17,0,13.61-.95,1.93-1.63,4.32-.51,6.33,5.17,8.08,17.92,2.15,31.02-7.99,1.91-1.48,3.9-2.82,5.81-4.21,12.81-9.3,26.31-19.09,41.66-23.21-18.05,5.82-24.04,20.56-27.37,31.04h0Z"/>
        <path class="cls-17" d="m137.95,113.99c-5.57,3.9-15.75,12.4-25.12,18.38-10.96,6.99-26.87,8.86-39.78-.25,2.3.31,3.96.23,5.84.02-5.41-4.53-10.06-14.32-6.08-23.06,0,0,.73,2.71,1.41,4.51,1.18-7.68,6.2-12.31,13.11-15.17-11.69,10.3-11.58,32.55,6.41,32,15.7-.48,34.3-19.69,49.91-29.92-2.69,4.62-4.4,9.38-5.71,13.49h0Z"/>
        <path class="cls-16" d="m137.95,113.99c-1.53,1.07-3.4,2.49-5.51,4.1,2.24-12.66,9.69-23.53,20.05-30.31,4.14-1.98,8.41-3.64,12.84-4.83-18.05,5.82-24.04,20.56-27.37,31.04h0Z"/>
        <path class="cls-18" d="m137.95,113.99c-4.15,8.57-10.37,11.79-18.31,16.1-1.32,11.38-3.71,23.1-7.3,36.19-.22.82-.45,1.65-.69,2.48h26.69c-.11-.87-.28-1.84-.53-2.84-.67-2.67-1.91-5.54-4.03-7.25l-2.67,1.25c-2.23.63-2.74-1.77-1.72-4.26,5.16-12.53,13.49-13.46,26.88-17.27,6.55-2.45,11.41-5.41,15.11-8.69,19.34-17.13,7.25-42.99,40.25-50.09-13.87,1.21-30.27.55-39.44,1.92-2.33.34-4.62.82-6.86,1.42,0,0-.01,0-.02,0-18.05,5.82-24.04,20.56-27.37,31.04h0Z"/>
        <path class="cls-17" d="m119.31,168.76h19.03c-.11-.87-.28-1.84-.53-2.84-.67-2.67-1.91-5.54-4.03-7.25l-2.67,1.25c-2.23.63-2.74-1.77-1.72-4.26,5.16-12.53,13.49-13.46,26.88-17.27,6.55-2.45,11.41-5.41,15.11-8.69,19.34-17.13,7.25-42.99,40.25-50.09-3.41.29-6.97.48-10.53.61-49.5,5.48-33.28,47.62-73.39,56.23l-8.4,32.32Z"/>
        <path class="cls-9" d="m138.35,168.76c-.11-.87-.28-1.84-.53-2.84-.67-2.67-1.91-5.54-4.03-7.25l-2.67,1.25c-2.23.63-2.74-1.77-1.72-4.26,5.16-12.53,13.49-13.46,26.88-17.27,6.55-2.45,11.41-5.41,15.11-8.69,19.34-17.13,7.25-42.99,40.25-50.09-.32.03-.64.05-.96.08.08.03.16.05.24.08-13.04,1.6-19.83,8.43-23.14,14.67-2.93,5.53-4.43,11.74-6.58,17.59-2.4,6.53-5.41,12-10.69,16.67-4.25,3.77-9.35,6.44-14.65,8.42-3.54,1-7.14,1.89-10.65,3.01-3.02.97-5.98,2.14-8.61,3.94-4.05,2.78-6.58,6.58-8.43,11.07-.7,1.7-1.09,4.32.57,5.62.79.62,1.79.68,2.73.42l2.08-.95c2.08,1.82,4.32,6.04,4.79,8.53h0Z"/>
        <path class="cls-9" d="m137.95,113.99c-4.15,8.57-10.37,11.79-18.31,16.1,7.6-2.63,15.33-6.9,19.5-15.53l.04-.08.03-.09c1.91-6,4.24-11.76,7.98-16.89,8.41-11.55,18.02-15.46,38.01-16.87-5.02.15-9.53.38-13,.9-2.33.34-4.62.82-6.86,1.42,0,0-.01,0-.02,0-18.05,5.82-24.04,20.56-27.37,31.04h0Z"/>
        <g class="cls-5">
          <rect class="cls-22" x="154.45" y="129.37" width="33.27" height="39.39"/>
        </g>
        <path class="cls-17" d="m171.4,129.69c-3.7,3.28-8.56,6.24-15.11,8.69-.19,1.72-.87,5.73-1.83,7.19,4.07,5.01,8.8,13.15,11.49,20.16.4,1.04.75,2.05,1.05,3.02h6.7c-1.87-6.31-9.33-24.73-9.33-24.73,3.73-4.9,8.27-14.38,8.27-14.38-.79.02-1.24.04-1.24.04h0Z"/>
        <path class="cls-16" d="m171.4,129.69c-3.7,3.28-8.56,6.24-15.11,8.69-.19,1.72-.87,5.73-1.83,7.19.94,1.15,1.91,2.47,2.89,3.91,4.63-9.58,14.44-16.19,25.8-16.19.23,0,.46,0,.69,0,.61-1.04,1.2-2.14,1.77-3.31-7.41-.63-14.2-.3-14.2-.3h0Z"/>
        <path class="cls-14" d="m171.4,129.69s6.8-.32,14.2.3c10.22-.22,18.16,4.43,32.78,4.56,11.64-27.5,38.92-55.77,18.91-72.67.96.85,1.58,2.04,1.71,3.67.4,5.11-6.61,9.14-10.6,10.75-4.38,1.77-10.29,2.73-16.76,3.3-33,7.11-20.91,32.96-40.25,50.09h0Z"/>
        <path class="cls-17" d="m171.4,129.69s6.8-.32,14.2.3c10.22-.22,18.16,4.43,32.78,4.56,11.64-27.5,38.92-55.77,18.91-72.67.96.85,1.58,2.04,1.71,3.67.03.37.02.73-.02,1.08h0c2.32,10.7-7.03,48.22-58.67,50.99-2.02,4.24-4.73,8.35-8.91,12.06h0Z"/>
        <path class="cls-16" d="m171.4,129.69s3.52-.17,8.25-.03c10-13.42,6.95-44.82,32-50.06-33,7.11-20.91,32.96-40.25,50.09h0Z"/>
        <path class="cls-16" d="m210.75,134.06c2.35.28,4.87.47,7.63.5,11.57-27.33,38.57-55.41,19.27-72.35.02.04.05.07.07.11.35.39.64.85.85,1.37,12.5,21.43-15.3,43.49-27.83,70.37h0Z"/>
        <g class="cls-6">
          <rect class="cls-8" x="216.49" y="135.63" width="1.43" height="3.13"/>
        </g>
        <g class="cls-1">
          <rect class="cls-20" x="217.92" y="134.56" width=".45" height="1.07"/>
        </g>
        <g class="cls-2">
          <rect class="cls-23" x="218.38" y="134.56" width="0" height="0"/>
        </g>
        <path class="cls-12" d="m237.29,61.89c13.35,11.28,5.03,28.08-1.83,40.76-5.66,10.45-12.45,20.98-17.08,31.91l-1.78,4.2c3.96,8.74,6.62,17.68,7.77,27.26l.33,2.74h22.59c-1.17-4.35-1.58-6.74-5.44-10.4l-2.89.81c-1.73.44-3.12-.62-3.15-2.72-.06-5.67.23-10.12,2.99-15.3,2.48-4.64,5.02-8.03,8.87-11.43,24.1-26.5,23.72-74.71-16.42-69.62,2.59.04,4.61.53,6.19,1.92-.04-.04-.09-.09-.14-.13h0Z"/>
        <path class="cls-9" d="m237.67,62.22c12.81,11.27,4.59,27.87-2.21,40.43-5.66,10.45-12.45,20.98-17.08,31.91l-1.78,4.2c3.96,8.74,6.62,17.68,7.77,27.26l.33,2.74c-1.25-10.52-2.22-20.12-6.65-30.02l3.27-7.49c6.41-13.59,17.74-29.93,22.24-42.98,3.58-10.4,1.57-21.56-5.88-26.05h0Z"/>
        <path class="cls-17" d="m237.29,61.89c.12.11.24.21.36.32.15.13.3.26.45.4.15.14.29.28.44.42.14.13.28.27.41.4.14.14.27.28.4.42.13.14.26.27.38.41.13.14.24.29.36.43,16.99,5.7,15.86,27.4,8.47,41.11-6.58,12.2-16.7,22.7-21.08,33.08,0,0,3.55,14,5.45,29.89h14.36c-.23-.87-.44-1.65-.64-2.37-.88-3.13-1.73-5.13-4.8-8.03l-2.89.81c-1.73.44-3.12-.62-3.15-2.72-.06-5.67.23-10.12,2.99-15.3,2.48-4.64,5.02-8.03,8.87-11.43,23.97-26.35,23.72-74.18-15.78-69.69-.02.03-.04.06-.06.09h0c2.1.1,3.96.57,5.26,1.61.12.1.23.2.34.3-.04-.04-.09-.09-.14-.13h0Z"/>
        <path class="cls-16" d="m237.29,61.89c.12.11.24.21.36.32.15.13.3.26.45.4.15.14.29.28.44.42.14.13.28.27.41.4.14.14.27.28.4.42.13.14.26.27.38.41.13.14.24.29.36.43l.04.04c26.35,4.83,23.08,43.35,7.54,64.99,24.1-26.5,23.72-74.71-16.42-69.62,2.33.04,4.42.5,5.85,1.63.12.1.23.2.34.3-.04-.04-.09-.09-.14-.13h0Z"/>
        <path class="cls-15" d="m279.15,94.92c-5.61,15.37-21.47,28.71-31.49,34.79.1,3.68-.25,6.56-.92,10.11,7.2,8.86,11.39,16.43,13.72,26.92.15.66.29,1.33.42,2.01h20.62c-.06-.37-.13-.73-.19-1.08-.73-3.8-1.8-6.64-4.79-9.4-5.57,1.77-6.75-.18-8.06-5.26-1.59-6.17-3.44-12.36-2.72-18.18,1.33-10.79,5-20.15,9.29-29.32,1.63-3.48,3.01-7.02,4.13-10.6h0Z"/>
        <path class="cls-17" d="m259.15,121.31c-4.08,3.49-8.12,6.36-11.49,8.41.1,3.68-.25,6.56-.92,10.11,7.2,8.86,11.39,16.43,13.72,26.92.15.66.29,1.33.42,2.01h7.33c-2.45-14.01-12.49-31.84-12.49-31.84l3.42-15.61Z"/>
        <path class="cls-16" d="m279.13,94.98c-5.63,15.35-21.46,28.66-31.47,34.74.08,2.93-.13,5.35-.55,8,9.75-5.45,17.96-13.31,23.83-22.78,1.24-3.19,2.62-6.32,4.07-9.42,1.61-3.45,2.99-6.96,4.1-10.5v-.04Z"/>
        <path class="cls-9" d="m269.94,41.75c13.56,14.46,15.16,34.21,9.21,53.18-5.17,14.16-19.03,26.6-29.02,33.22,11.58-8.2,23.49-21.97,27.76-33.65,5.08-16.23,6.03-35.97-7.96-52.75h0Z"/>
        <path class="cls-4" d="m223.79,61.01s-.07-.08-.11-.12c.04.04.08.08.11.12"/>
        <path class="cls-9" d="m231.24,60.09c-2.38-.04-5.02.36-7.45.92,10.69-2.95,26.04-3.38,34.27,6.02,7.11,8.13,8.17,20.06,6.56,30.32-1.44,9.15-9.15,25.17-16.94,32.35,24.08-26.5,23.69-74.69-16.44-69.6h0Z"/>
        <path class="cls-13" d="m177.95,83.62c1.38-.04,3.27,1.38,3.69,2.82-.29,1.45-2.15,3.78-3.69,4.56-1.38.04-3.27-1.38-3.69-2.82.29-1.45,2.15-3.78,3.69-4.56h0Zm23.73,7.42c1.46,1.11,2.82,3.79,2.63,5.28-.94.91-3.92,1.22-5.87.56-1.46-1.11-2.82-3.8-2.63-5.28.94-.91,3.92-1.21,5.87-.56Zm-29.09,16.07c1.06,1.01,1.71,3.7,1.24,5.29-1.01,1.06-3.7,1.71-5.29,1.24-1.06-1.01-1.71-3.7-1.24-5.29,1.01-1.06,3.7-1.71,5.3-1.24Zm-25.18,9.39c.96-.34,2.85.11,3.69.91.34.97-.11,2.85-.91,3.69-.97.34-2.85-.11-3.69-.91-.34-.97.11-2.85.91-3.69Zm68.4-34.9c1.88,1.79,2.59,5.84,1.69,8.49-2.49.73-6.35-.67-8.2-2.78.61-2.52,3.76-5.16,6.51-5.71Zm-46.79,11.72c1.26.27,2.99,1.97,3.38,3.38-.26,1.26-1.97,2.99-3.38,3.38-1.26-.26-2.99-1.97-3.38-3.38.26-1.26,1.97-2.99,3.38-3.38Zm22.94,6.86c1.65-.56,4.28.27,5.58,1.63-.34,1.71-2.38,3.57-4.21,4.02-1.31-1.15-1.91-3.84-1.38-5.65Zm23.36-3.45c.85.81,1.36,2.95.98,4.22-.81.84-2.95,1.36-4.22.98-.85-.81-1.36-2.95-.98-4.22.81-.84,2.95-1.36,4.22-.98Zm14.75-10.35c1.46.06,3.72,1.64,4.41,3.13-.05,1.46-1.63,3.71-3.13,4.41-1.46-.05-3.71-1.63-4.41-3.13.05-1.46,1.63-3.71,3.13-4.41Zm19.59-54.02c1.39-.48,3.61.23,4.7,1.38-.28,1.44-2,3.01-3.54,3.38-1.11-.97-1.61-3.24-1.16-4.76Zm4.1,8.06c.56.53.9,1.95.65,2.79-.53.56-1.95.9-2.79.65-.56-.54-.9-1.95-.65-2.79.53-.56,1.95-.9,2.79-.65Zm14.43,7.8c1.08.04,2.76,1.21,3.27,2.32-.04,1.08-1.21,2.76-2.32,3.27-1.08-.04-2.76-1.21-3.27-2.33.04-1.08,1.21-2.76,2.33-3.27Zm-1.89,21.16c.88-.3,2.27.14,2.96.87-.18.91-1.26,1.89-2.23,2.13-.69-.61-1.01-2.04-.73-3Zm9.02,6.15c.97-.34,2.85.11,3.69.91.34.97-.11,2.85-.91,3.69-.97.34-2.85-.11-3.69-.91-.34-.97.11-2.85.91-3.69Zm.33-16.49c1.46,1.11,2.82,3.8,2.63,5.28-.94.91-3.92,1.22-5.87.56-1.46-1.11-2.82-3.8-2.63-5.28.94-.91,3.92-1.21,5.87-.56Zm-44.48,63.98c1.37.51,3.01,2.72,3.2,4.36-.51,1.37-2.72,3.01-4.36,3.2-1.37-.51-3.01-2.72-3.2-4.36.51-1.37,2.72-3.01,4.36-3.2Zm8.8-20.11c.65-1.31,2.72-2.38,4.3-2.33.81,1.22.7,3.54-.13,4.89-1.47.09-3.42-1.17-4.17-2.56Zm-129.21,18.17c1.81.84,3.33,3.61,3.33,5.77-1.63,1.15-4.79,1.08-6.66,0-.18-1.99,1.46-4.69,3.33-5.77Zm6.93-9.18c.97-.34,2.85.11,3.69.91.34.97-.11,2.85-.91,3.69-.97.34-2.85-.11-3.69-.91-.34-.97.11-2.85.91-3.69Zm41.64-14.54c-.39,1.41-2.45,3.26-4.07,3.6-1.42-.39-3.26-2.45-3.6-4.07.39-1.42,2.45-3.27,4.07-3.6,1.42.39,3.27,2.45,3.6,4.07Zm79.46,15.54c1.02-.03,2.41,1.02,2.72,2.08-.21,1.07-1.59,2.79-2.72,3.36-1.02.03-2.41-1.02-2.72-2.08.21-1.07,1.59-2.79,2.72-3.36Zm-111.18-5.21c.65-1.32,2.72-2.38,4.3-2.33.81,1.22.7,3.54-.13,4.9-1.46.09-3.42-1.17-4.17-2.56Zm-28.35,17.54c.43-.87,1.8-1.57,2.85-1.54.54.81.46,2.34-.09,3.24-.97.06-2.26-.77-2.76-1.69Zm35.06.29c.43-.87,1.8-1.57,2.85-1.54.54.81.46,2.35-.09,3.24-.97.06-2.26-.77-2.76-1.7Zm10.91-17.39c.43-.87,1.8-1.57,2.85-1.54.54.81.46,2.35-.09,3.24-.97.06-2.26-.77-2.76-1.69Zm17.85-20.42c.43-.87,1.8-1.57,2.85-1.54.54.81.46,2.34-.09,3.24-.97.06-2.26-.77-2.76-1.69Zm59.51-5.02c.43-.87,1.8-1.57,2.85-1.54.54.81.46,2.34-.09,3.24-.97.06-2.26-.77-2.76-1.69Zm-65.37,21.78c1.81.84,3.33,3.61,3.33,5.77-1.63,1.15-4.79,1.08-6.66,0-.18-1.99,1.46-4.69,3.33-5.77Z"/>
      </g>
      <ellipse class="cls-21" cx="240.81" cy="34.82" rx="1.25" ry="2.56" transform="translate(195.99 273.97) rotate(-87.61)"/>
    </g>
    <path class="cls-7" d="m15.1,254.62v-71.41h19.19v71.41H15.1Z"/>
    <rect class="cls-7" x="43.38" y="203.77" width="19.7" height="50.84"/>
    <path class="cls-7" d="m108.37,254.62h-19.7v-70.98h19.7v70.98Zm5.46,0v-50.84c7.08.71,12.55,3.28,16.42,7.73,3.86,4.44,5.79,10.38,5.79,17.82s-1.96,13.23-5.87,17.67c-3.91,4.44-9.36,6.99-16.35,7.63Z"/>
    <path class="cls-7" d="m159.89,254.62h-19.7v-50.84h19.7v50.84Z"/>
    <path class="cls-7" d="m179.16,203.77c-.48.35-.87.77-1.16,1.23-.29.47-.43.93-.43,1.38,0,1.13.66,2.37,1.98,3.72.26.26.45.47.58.63l20.18,21.15c1.77,1.8,3.09,3.65,3.96,5.53s1.3,3.82,1.3,5.82c0,3.67-1.28,6.5-3.84,8.5-2.56,2-6.19,2.99-10.89,2.99-.29,0-.68-.02-1.16-.05s-.85-.05-1.11-.05c.48-.32.86-.72,1.13-1.18.27-.47.41-.96.41-1.47,0-1.13-.66-2.38-1.98-3.77-.23-.22-.39-.39-.48-.48l-19.46-21.2c-1.19-1.29-2.02-2.58-2.49-3.89-.47-1.3-.7-3.07-.7-5.29,0-3.86,1.25-7.09,3.74-9.68,2.49-2.59,5.59-3.89,9.29-3.89h1.11Zm7.44,50.84h-20.76v-22.36l20.76,22.36Zm14.92-29.16l-20.38-21.68h20.38v21.68Z"/>
    <path class="cls-7" d="m267.09,255.49c-9.24-.13-15.72-2.11-19.43-5.94s-5.58-10.57-5.58-20.23v-46.11h25.01v72.28Zm5.41,0v-72.28h25.01v46.11c0,9.66-1.86,16.4-5.58,20.23s-10.2,5.81-19.43,5.94Z"/>
    <path class="cls-7" d="m354.48,183.5c-.68.74-1.18,1.47-1.5,2.2-.32.72-.48,1.49-.48,2.29,0,.93.26,1.94.77,3.02.51,1.08,1.38,2.41,2.61,3.98l21.63,27.81c2.19,2.77,3.69,5.29,4.51,7.56.82,2.27,1.23,4.82,1.23,7.65,0,4.67-1.58,8.6-4.73,11.81-3.15,3.2-7.05,4.8-11.68,4.8-.68,0-1.4-.03-2.17-.1s-1.63-.16-2.56-.29c.68-.64,1.19-1.3,1.55-1.98.35-.68.53-1.37.53-2.08,0-1.06-.23-2.12-.7-3.19-.47-1.06-1.39-2.48-2.78-4.25l-21.53-27.67c-2.22-2.86-3.75-5.42-4.59-7.68-.84-2.25-1.25-4.78-1.25-7.58,0-4.76,1.61-8.74,4.83-11.93,3.22-3.19,7.31-4.78,12.26-4.78.87,0,2.14.13,3.82.39h.24Zm-20.18,71.12v-32.54l25.16,32.54h-25.16Zm46.21-41.24l-23.37-30.18h23.37v30.18Z"/>
    <rect class="cls-7" x="17.63" y="164.05" width="14.13" height="14.13" transform="translate(128.23 32.66) rotate(45)"/>
    <rect class="cls-7" x="66.6" y="211.13" width="13.02" height="13.02" transform="translate(278.7 319.84) rotate(135)"/>
    <rect class="cls-7" x="303.08" y="238.9" width="13.02" height="13.02" transform="translate(264.21 -147.03) rotate(45)"/>
    <rect class="cls-7" x="386.52" y="238.9" width="13.02" height="13.02" transform="translate(288.65 -206.04) rotate(45)"/>
    <rect class="cls-7" x="143.53" y="184.64" width="13.02" height="13.02" transform="translate(179.11 -50.11) rotate(45)"/>
  </g>
</svg>