<svg xmlns="http://www.w3.org/2000/svg" xmlns:xlink="http://www.w3.org/1999/xlink" version="1.1" style="shape-rendering:geometricPrecision; text-rendering:geometricPrecision; image-rendering:optimizeQuality; fill-rule:evenodd; clip-rule:evenodd" viewBox="149.44 290.4 521.85 399.1">
<g><path style="opacity:0.936" fill="#c5924e" d="M 361.5,290.5 C 401.711,289.029 434.544,303.695 460,334.5C 487.872,376.938 487.205,418.938 458,460.5C 445.023,477.066 428.856,489.399 409.5,497.5C 408.479,496.998 408.312,496.332 409,495.5C 453.584,461.739 467.251,418.072 450,364.5C 432.129,322.795 400.629,298.795 355.5,292.5C 357.631,291.831 359.631,291.165 361.5,290.5 Z"/></g>
<g><path style="opacity:0.939" fill="#c5924e" d="M 439.5,295.5 C 480.374,303.002 509.207,325.668 526,363.5C 541.572,419.138 525.072,462.304 476.5,493C 461.764,501.099 446.097,505.266 429.5,505.5C 479.668,487.53 506.335,451.864 509.5,398.5C 506.183,351.333 483.183,317.833 440.5,298C 439.748,297.329 439.414,296.496 439.5,295.5 Z"/></g>
<g><path style="opacity:0.932" fill="#c5924e" d="M 305.5,315.5 C 357.561,312.123 394.061,334.123 415,381.5C 427.991,421.706 421.491,458.372 395.5,491.5C 395.167,491 394.833,490.5 394.5,490C 418.147,439.241 409.814,394.575 369.5,356C 333.439,327.741 294.106,322.241 251.5,339.5C 250.833,339.167 250.167,338.833 249.5,338.5C 266.28,326.132 284.947,318.465 305.5,315.5 Z"/></g>
<g><path style="opacity:0.933" fill="#c5924e" d="M 271.5,339.5 C 325.804,339.554 361.637,365.221 379,416.5C 382.955,433.279 383.455,450.113 380.5,467C 375.521,416.202 348.521,382.535 299.5,366C 251.23,354.978 211.564,368.645 180.5,407C 179.668,407.688 179.002,407.521 178.5,406.5C 197.535,367.452 228.535,345.119 271.5,339.5 Z"/></g>
<g><path style="opacity:0.934" fill="#c5924e" d="M 239.5,384.5 C 291.558,382.123 329.058,404.123 352,450.5C 354.133,455.732 355.966,461.066 357.5,466.5C 356.726,467.711 355.893,467.711 355,466.5C 331.352,423.231 294.852,403.731 245.5,408C 195.028,417.97 163.028,447.804 149.5,497.5C 148.271,455.456 164.938,422.623 199.5,399C 212.061,391.65 225.394,386.817 239.5,384.5 Z"/></g>
<g><path style="opacity:0.932" fill="#c5924e" d="M 251.5,431.5 C 282.253,430.804 309.253,440.304 332.5,460C 332.167,460.5 331.833,461 331.5,461.5C 299.253,444.558 266.253,443.058 232.5,457C 180.53,484.112 160.03,526.612 171,584.5C 172.116,589.132 173.616,593.632 175.5,598C 175.167,598.5 174.833,599 174.5,599.5C 163.004,583.81 156.504,566.144 155,546.5C 152.18,507.596 165.68,475.763 195.5,451C 212.499,439.391 231.166,432.891 251.5,431.5 Z"/></g>
<g><path style="opacity:0.937" fill="#c5924e" d="M 276.5,470.5 C 286.839,470.334 297.172,470.5 307.5,471C 310.98,471.301 314.313,472.135 317.5,473.5C 281.697,475.352 252.197,489.685 229,516.5C 198.035,563.382 199.368,609.382 233,654.5C 237.333,658.833 241.667,663.167 246,667.5C 246.591,668.483 246.257,669.15 245,669.5C 200.681,645.875 180.681,608.875 185,558.5C 196.064,508.935 226.564,479.602 276.5,470.5 Z"/></g>
<g><path style="opacity:0.93" fill="#c5924e" d="M 319.5,496.5 C 323.226,496.177 326.893,496.511 330.5,497.5C 282.889,512.62 256.889,545.12 252.5,595C 255.008,637.542 275.008,668.709 312.5,688.5C 311.833,688.833 311.167,689.167 310.5,689.5C 266.862,677.699 240.696,649.699 232,605.5C 228.798,561.061 246.631,528.227 285.5,507C 296.475,501.93 307.808,498.43 319.5,496.5 Z"/></g>
<g><path style="opacity:0.888" fill="#fff" d="M 500.5,562.5 C 508.337,561.968 516.003,562.801 523.5,565C 529.198,566.769 530.031,569.936 526,574.5C 525.439,575.022 524.772,575.355 524,575.5C 519.253,572.543 514.086,570.877 508.5,570.5C 498.205,571.602 495.538,576.436 500.5,585C 508.982,587.204 517.315,589.87 525.5,593C 534.201,602.413 534.534,612.08 526.5,622C 514.558,628.424 502.224,629.091 489.5,624C 487.777,623.477 486.444,622.477 485.5,621C 485.905,617.72 487.405,615.22 490,613.5C 499.646,619.285 509.479,619.785 519.5,615C 523.892,609.298 523.225,604.298 517.5,600C 510.544,597.875 503.544,595.875 496.5,594C 488.24,588.889 485.74,581.723 489,572.5C 491.566,567.645 495.399,564.311 500.5,562.5 Z"/></g>
<g><path style="opacity:0.888" fill="#fff" d="M 639.5,562.5 C 647.337,561.968 655.003,562.801 662.5,565C 668.198,566.769 669.031,569.936 665,574.5C 664.439,575.022 663.772,575.355 663,575.5C 658.253,572.543 653.086,570.877 647.5,570.5C 637.205,571.602 634.538,576.436 639.5,585C 647.982,587.204 656.315,589.87 664.5,593C 673.201,602.413 673.534,612.08 665.5,622C 653.558,628.424 641.224,629.091 628.5,624C 626.777,623.477 625.444,622.477 624.5,621C 624.905,617.72 626.405,615.22 629,613.5C 638.646,619.285 648.479,619.785 658.5,615C 662.892,609.298 662.225,604.298 656.5,600C 649.544,597.875 642.544,595.875 635.5,594C 627.24,588.889 624.74,581.723 628,572.5C 630.566,567.645 634.399,564.311 639.5,562.5 Z"/></g>
<g><path style="opacity:0.947" fill="#fff" d="M 338.5,563.5 C 341.5,563.5 344.5,563.5 347.5,563.5C 347.5,584.167 347.5,604.833 347.5,625.5C 344.5,625.5 341.5,625.5 338.5,625.5C 338.5,604.833 338.5,584.167 338.5,563.5 Z"/></g>
<g><path style="opacity:0.906" fill="#fff" d="M 357.5,563.5 C 367.839,563.334 378.172,563.5 388.5,564C 403.916,569.17 407.583,578.837 399.5,593C 396.971,595.029 394.304,596.862 391.5,598.5C 396.085,606.005 400.918,613.338 406,620.5C 407.009,622.025 407.509,623.692 407.5,625.5C 403.818,625.665 400.152,625.499 396.5,625C 391.167,616.667 385.833,608.333 380.5,600C 375.845,599.501 371.179,599.334 366.5,599.5C 366.5,608.167 366.5,616.833 366.5,625.5C 363.5,625.5 360.5,625.5 357.5,625.5C 357.5,604.833 357.5,584.167 357.5,563.5 Z M 366.5,571.5 C 373.547,571.337 380.547,571.837 387.5,573C 396.953,579.132 396.62,584.799 386.5,590C 379.842,590.5 373.175,590.666 366.5,590.5C 366.5,584.167 366.5,577.833 366.5,571.5 Z"/></g>
<g><path style="opacity:0.904" fill="#fff" d="M 413.5,563.5 C 423.172,563.334 432.839,563.5 442.5,564C 454.436,566.356 458.936,573.522 456,585.5C 455.269,587.899 454.102,590.065 452.5,592C 461.835,599.185 463.668,608.018 458,618.5C 455.766,620.7 453.266,622.533 450.5,624C 438.242,625.439 425.909,625.939 413.5,625.5C 413.5,604.833 413.5,584.167 413.5,563.5 Z M 423.5,571.5 C 429.593,571.139 435.593,571.639 441.5,573C 449.5,578 449.5,583 441.5,588C 435.509,588.499 429.509,588.666 423.5,588.5C 423.5,582.833 423.5,577.167 423.5,571.5 Z M 423.5,597.5 C 430.508,597.334 437.508,597.5 444.5,598C 450.487,600.14 452.654,604.307 451,610.5C 449.12,614.471 445.953,616.637 441.5,617C 435.509,617.499 429.509,617.666 423.5,617.5C 423.5,610.833 423.5,604.167 423.5,597.5 Z"/></g>
<g><path style="opacity:0.905" fill="#fff" d="M 468.5,563.5 C 471.833,563.5 475.167,563.5 478.5,563.5C 478.5,584.167 478.5,604.833 478.5,625.5C 475.167,625.5 471.833,625.5 468.5,625.5C 468.5,604.833 468.5,584.167 468.5,563.5 Z"/></g>
<g><path style="opacity:0.922" fill="#fff" d="M 566.5,563.5 C 569.5,563.5 572.5,563.5 575.5,563.5C 575.087,578.217 575.587,592.884 577,607.5C 582.436,618.09 590.603,620.924 601.5,616C 604.869,613.635 607.036,610.468 608,606.5C 609.411,592.217 609.911,577.884 609.5,563.5C 612.5,563.5 615.5,563.5 618.5,563.5C 618.667,577.837 618.5,592.171 618,606.5C 615.133,620.344 606.466,627.344 592,627.5C 578.229,627.466 569.896,620.799 567,607.5C 566.5,592.837 566.333,578.17 566.5,563.5 Z"/></g>
</svg>